<?xml version="1.0" encoding="UTF-8" standalone="no"?>
<!--DOCTYPE svg PUBLIC "-//W3C//DTD SVG 1.1//EN" "http://www.w3.org/Graphics/SVG/1.1/DTD/svg11.dtd"-->
<svg xmlns:dc="http://purl.org/dc/elements/1.1/" xmlns:cc="http://creativecommons.org/ns#" xmlns:rdf="http://www.w3.org/1999/02/22-rdf-syntax-ns#" xmlns:svg="http://www.w3.org/2000/svg" xmlns="http://www.w3.org/2000/svg" xmlns:xlink="http://www.w3.org/1999/xlink" xmlns:sodipodi="http://sodipodi.sourceforge.net/DTD/sodipodi-0.dtd" xmlns:inkscape="http://www.inkscape.org/namespaces/inkscape" id="svg2" width="850" height="547" version="1.1" style="display:inline" sodipodi:version="0.32" inkscape:version="0.46" sodipodi:docname="Mauna_Loa_Carbon_Dioxide-ru.svg" inkscape:output_extension="org.inkscape.output.svg.inkscape">
  <metadata id="metadata75">
    <rdf:RDF>
      <cc:Work rdf:about="">
        <dc:format>image/svg+xml</dc:format>
        <dc:type rdf:resource="http://purl.org/dc/dcmitype/StillImage"/>
      </cc:Work>
    </rdf:RDF>
  </metadata>
  <defs id="defs73">
    <inkscape:perspective sodipodi:type="inkscape:persp3d" inkscape:vp_x="0 : 273.5 : 1" inkscape:vp_y="0 : 1000 : 0" inkscape:vp_z="850 : 273.5 : 1" inkscape:persp3d-origin="425 : 182.33333 : 1" id="perspective77"/>
  </defs>
  <sodipodi:namedview inkscape:window-height="750" inkscape:window-width="1264" inkscape:pageshadow="2" inkscape:pageopacity="0.0" guidetolerance="10.0" gridtolerance="10.0" objecttolerance="10.0" borderopacity="1.0" bordercolor="#666666" pagecolor="#ffffff" id="namedview71" showgrid="false" inkscape:zoom="1" inkscape:cx="411.26708" inkscape:cy="271.81092" inkscape:window-x="0" inkscape:window-y="14" inkscape:current-layer="svg2"/>
  <g id="base" style="display:inline">
    <rect id="r3214" style="opacity:1;fill:none;stroke:#000000;stroke-width:1" width="683.85492" height="482.61005" x="20.554447" y="21.183664" transform="matrix(1.0345908,0,0,1,-0.710996,0)"/>
    <path id="p2475" style="fill:none;stroke:#000000;stroke-width:1;stroke-miterlimit:4;stroke-dasharray:8, 8;" d="M 84.944402,20.973926 L 84.944402,503.7682 M 213.9931,20.973926 L 213.9931,503.7682 M 343.0418,20.973926 L 343.0418,503.7682 M 472.0905,20.973926 L 472.0905,503.7682 M 600.92946,20.973926 L 600.92946,503.7682 M 20.554448,81.37883 L 728.00499,81.37883 M 20.554448,142.00805 L 728.00499,142.00805 M 20.554448,202.00805 L 728.00499,202.00805 M 20.554448,262.84701 L 728.00499,262.84701 M 20.554448,323.16909 L 728.00499,323.16909 M 20.554448,383.16909 L 728.00499,383.16909 M 20.554448,443.79831 L 728.00499,443.79831"/>
    <path id="p3937" style="fill:none;stroke:#b4b4b4;stroke-width:2;stroke-linecap:butt;stroke-linejoin:round;stroke-miterlimit:10" d="M 92.5,251 C 93.853571,262.85272 95.993785,249.88342 96.171897,244.60733 C 96.57579,232.64313 98.295319,240.12514 99.972008,247.58319 C 100.78471,251.19814 102.5184,265.11671 104.42593,255.87316 C 105.13742,252.42542 106.17047,237.28064 107.53365,242.28987 C 109.49406,249.49377 110.13153,263.86775 112.499,264.16599 C 114.7589,264.45068 114.59644,242.13039 116.416,243 C 118.64641,244.06597 119.17419,265.6974 121.749,266.49899 C 123.93318,267.17897 123.96682,245.09693 125.665,246.166 C 127.90825,247.57822 128.47833,269.41457 130.998,270.082 C 133.19564,270.66412 133.1256,248.02189 134.91499,248.916 C 137.13472,250.02514 137.80524,271.77762 140.248,272.24899 C 142.45402,272.67467 142.29759,250.05314 144.08099,250.83299 C 146.2287,251.77216 147.0024,273.8941 149.49699,274.332 C 151.7727,274.73147 151.50584,251.83645 153.33,252.582 C 155.50278,253.47003 156.2579,275.16945 158.746,275.91501 C 160.85478,276.5469 160.9474,254.2881 162.58,255.582 C 164.97662,257.48142 165.35212,280.07377 167.996,281.08099 C 170.12937,281.89372 170.08216,259.12257 171.82899,260.082 C 174.0741,261.31511 174.68957,283.3995 177.25,284 C 179.48802,284.52488 179.4036,261.70647 181.08299,262.75 C 183.29082,264.1219 183.90676,286.61292 186.49899,287.582 C 188.59772,288.36659 188.75043,265.6294 190.332,266.99899 C 192.7015,269.0509 192.9076,292.10177 195.666,293.41501 C 197.78929,294.42588 197.88471,271.603 199.582,272.74799 C 201.87296,274.29347 202.31278,296.86424 204.91499,297.664 C 207.1306,298.34494 207.06086,275.26914 208.832,276.16501 C 211.01463,277.26902 211.62459,299.54236 214.16499,300.164 C 216.41018,300.7134 216.33873,277.48217 218.08099,278.58099 C 220.37715,280.02914 220.97116,302.89918 223.414,304.07999 C 225.30346,304.9933 224.81931,283.83852 226.58099,284.164 C 228.57289,284.53202 229.93029,300.72043 231.65043,308.80261 C 233.64766,318.1867 234.80616,301.75826 234.99699,298.49799 C 235.69348,286.59846 237.25317,297.1205 238.58286,302.92702 C 239.64217,307.55282 241.52536,321.22717 243.13015,309.84224 C 243.63427,306.26586 244.63641,288.80213 246.33553,296.63424 C 247.93358,304.00044 248.89874,318.37375 251.164,318.6655 C 253.31801,318.94292 253.27214,296.13237 255,297.25101 C 257.33365,298.76185 257.7798,321.74506 260.41599,322.58401 C 262.61209,323.28291 262.5999,299.58415 264.24899,301.00101 C 266.71855,303.1228 266.88955,327.10788 269.66501,328.83301 C 271.63629,330.05829 271.91779,307.01729 273.49799,308.50101 C 276.00993,310.85959 276.12713,334.3692 278.914,335.5 C 281.12235,336.39606 281.01813,312.62513 282.74799,313.83401 C 285.11156,315.48575 285.32968,339.10388 288.08099,340.41599 C 290.20478,341.42883 290.38511,317.87111 291.99701,319.41699 C 294.53306,321.84918 294.61402,345.93563 297.414,347.41599 C 299.49885,348.51826 299.61824,324.8471 301.24701,326.16599 C 303.58906,328.06246 303.90691,351.52146 306.57999,352.49899 C 308.78327,353.30472 308.78191,329.19855 310.496,330.41599 C 312.83058,332.07414 313.15613,356.07929 315.82999,356.99899 C 318.0619,357.76668 318.03065,333.18667 319.746,334.5 C 322.13651,336.33027 322.29949,361.05684 325.07901,362.832 C 327.06419,364.09985 327.45599,340.51893 329,342.08401 C 331.47852,344.59635 331.5365,368.28137 334.33301,369.58301 C 336.50891,370.59578 336.58181,346.30798 338.24899,347.75 C 340.7221,349.88909 340.96457,374.24181 343.582,375.332 C 345.68547,376.20811 345.71461,351.68358 347.41501,352.83301 C 349.69892,354.37687 350.1925,378.74737 352.83099,379.91501 C 354.91781,380.83852 355.04593,356.5536 356.664,357.99899 C 359.09472,360.1703 359.60099,384.7693 362.07999,386.414 C 363.85331,387.59052 363.47515,365.36525 365.164,365.832 C 367.15996,366.38362 368.55155,383.37256 370.29789,391.97375 C 372.33008,401.98284 373.40342,384.92916 373.66299,381.41501 C 374.59902,368.74274 375.75901,382.07465 377.17532,387.44269 C 378.04003,390.7201 379.73652,404.87738 381.32901,399.99799 C 383.42394,393.57915 382.92765,378.17716 384.41199,379.582 C 386.66254,381.712 387.03867,405.7295 389.746,406.914 C 391.89699,407.85509 392.04501,383.28636 393.66199,384.74799 C 396.07687,386.93085 396.29115,411.9943 398.995,412.99701 C 401.23467,413.82757 401.08253,388.40964 402.91199,389.332 C 405.14664,390.45864 405.69888,415.43824 408.25,416 C 410.5428,416.50488 410.3324,390.93683 412.16599,391.75 C 414.33413,392.71153 415.17392,417.40609 417.49899,418.16599 C 419.48089,418.81373 418.32514,397.16582 420.582,395.41599 C 422.10361,394.23623 423.55079,408.43641 424.70334,414.59831 C 426.28683,423.0642 427.93062,427.13859 428.43856,416.05292 C 428.64993,411.43991 430.01922,396.2479 431.41501,408.41599 C 432.34944,416.56213 433.70042,431.97366 435.99799,432.582 C 438.03627,433.12168 438.27726,409.05405 439.83099,410.582 C 442.24607,412.957 442.52298,438.31205 445.24701,439.49799 C 447.42337,440.44549 447.33635,414.96797 449.07999,416.082 C 451.36571,417.54237 452.13281,442.53633 454.496,443.58099 C 456.38821,444.41746 455.81272,421.08423 457.57999,421.332 C 459.52906,421.60525 461.1547,439.00402 462.49727,447.70901 C 464.43748,460.28894 465.75077,445.72676 465.97074,440.49436 C 466.51751,427.48862 468.08967,438.39395 469.36805,445.17999 C 470.17926,449.48613 472.55043,461.72817 473.31629,460.42601 C 476.59738,454.84731 475.21375,436.19919 476.828,437.414 C 479.0322,439.07278 479.88729,464.3859 482.25,465.41599 C 484.15316,466.24572 483.34571,443.68639 485.33301,442.66699 C 486.92548,441.85012 488.80815,457.11741 489.91599,464.08301 C 491.64542,474.95687 493.09298,468.45928 493.20558,461.27326 C 493.27666,456.73655 494.7233,441.91584 496.07636,454.12399 C 496.99895,462.44812 498.27842,477.92555 500.66599,478.832 C 502.67668,479.59536 503.17804,455.39976 504.582,457.332 C 507.21195,460.95155 507.28078,486.93374 509.91501,488.91501 C 511.75497,490.2989 510.96457,467.72308 513.08197,466.66501 C 514.74541,465.83379 516.1784,480.58111 517.37315,487.26986 C 518.89328,495.78023 520.10598,497.35568 520.74799,487.74799 C 520.95412,484.66317 522.0963,467.25429 523.5211,476.15645 C 525.02924,485.57931 526.12869,503.08483 528.414,504.32999 C 530.19904,505.30257 529.59761,482.58067 531.49701,482.164 C 533.2657,481.776 534.88839,497.6159 536.08002,505.16299 C 537.81348,516.14171 539.08404,510.18958 539.38767,502.60402 C 539.5668,498.12875 540.84244,482.80734 542.33002,494.996 C 543.33701,503.24692 544.94896,519.13897 546.91199,519.495 C 548.73624,519.82586 547.90414,497.75383 549.99597,496.496 C 551.58793,495.53874 552.34556,510.46829 554.32125,517.02751 C 555.18193,519.88493 555.06023,522.95635 556.16199,525.745" transform="matrix(1.396497,0,0,-1.5887586,-67.441714,865.62397)"/>
    <path id="p3335" style="fill:none;stroke:#ff0000;stroke-width:4;stroke-linecap:round;stroke-linejoin:round;stroke-miterlimit:4;" d="M 66.48735,471.0744 C 71.125032,469.88364 76.314109,469.76974 80.60187,467.47391 C 84.517236,465.37748 88.354395,463.20411 92.704755,462.0556 C 99.125827,460.36042 105.17978,457.54343 111.18977,454.65175 C 118.53404,451.11808 127.21927,451.03203 134.9069,448.05333 C 138.81732,446.53817 142.89872,445.46172 147.15367,445.5712 C 153.04025,445.72267 158.13736,442.20982 162.75767,438.98428 C 165.86201,436.81707 169.10479,434.59758 172.97838,434.2871 C 177.57011,433.91905 180.78823,429.95801 185.18798,429.32454 C 188.82465,428.80094 191.79196,427.04576 194.79235,425.06311 C 198.42035,422.66574 202.87563,421.30094 205.42753,417.52038 C 207.97301,413.74932 212.80525,413.86861 216.42804,411.83963 C 219.53,410.10235 223.27608,409.93601 226.23932,408.16009 C 230.58143,405.5578 235.57831,406.05192 239.62083,403.25997 C 243.17751,400.80357 246.51162,398.01578 249.7494,395.17231 C 253.98226,391.45493 256.97936,386.33259 261.61908,383.14758 C 265.82103,380.26309 271.05907,383.61084 275.59577,381.55454 C 281.06332,379.07633 285.78086,375.10494 291.3458,372.98477 C 294.82935,371.65758 298.7363,371.51796 301.82059,369.03971 C 305.46973,366.1076 308.01423,362.22071 311.37494,359.06825 C 314.6793,355.96866 319.27617,354.84458 322.55035,351.64262 C 325.46709,348.79022 329.34735,347.49006 332.52627,344.86087 C 337.56957,340.6897 343.15122,337.02918 348.04567,332.66224 C 353.3688,327.91283 359.01144,323.16444 365.52656,320.48844 C 370.58328,318.41147 374.64323,314.75176 380.1701,313.6709 C 385.76035,312.57764 386.36505,304.88852 391.46692,302.48493 C 399.34362,298.77406 406.38469,293.46533 413.28169,288.24992 C 417.1167,285.34994 421.40238,283.32713 425.16177,280.30927 C 428.52444,277.60988 431.93328,275.07881 435.25483,272.31802 C 438.33152,269.76074 442.09196,267.92197 444.27366,264.36323 C 447.979,258.31919 453.17541,253.18986 458.75542,248.90498 C 461.83385,246.54107 464.87909,243.80736 468.98955,243.34301 C 474.50758,242.71966 476.93576,236.62192 482.12697,235.22655 C 486.28203,234.10969 488.70025,229.03531 492.74199,228.84828 C 496.56894,228.67119 499.74325,227.71086 502.64691,225.3715 C 505.93294,222.72408 510.95442,226.48136 513.93924,222.64807 C 516.42623,219.45412 520.64073,218.58396 523.85828,216.23976 C 528.25303,213.03789 532.2818,209.38661 536.19505,205.66065 C 540.2948,201.75712 543.80801,196.9678 548.54557,193.93175 C 552.11354,191.64523 554.2903,187.50338 558.87845,186.85855 C 563.84504,186.16054 567.25105,181.90705 570.99089,178.88864 C 576.42424,174.5034 578.495,167.28024 582.85066,161.99229 C 585.79563,158.41696 589.63086,155.34301 593.78604,153.22053 C 597.11691,151.51912 600.55755,150.04763 603.7954,148.14103 C 607.21682,146.12633 609.69436,143.12317 613.12132,141.10225 C 617.29379,138.64169 621.06514,135.45749 624.63677,132.19171 C 630.43101,126.89365 635.20813,120.53514 640.05492,114.34433 C 643.12693,110.42044 645.29375,105.30351 649.75594,102.8583 C 654.30517,100.36538 657.37687,95.90586 662.16575,93.745846 C 668.08226,91.077217 669.19985,83.905426 674.32491,80.307249 C 677.70371,77.935073 680.06554,74.391779 683.4181,71.927878 C 687.85793,68.664914 689.52633,62.696033 694.71915,60.335824 C 698.45472,58.637955 701.76195,56.205062 705.14341,53.902988"/>
    <rect id="r3412" x="460.452" y="298.669" fill="#F1F1F1" stroke="#000000" width="255.043" height="192.121"/>
    <rect id="r3338" x="486.88" y="331.808" fill="#FFFFFF" stroke="#000000" width="201.35" height="126.263"/>
    <path id="p3340" fill="none" stroke="#000000" d="M537.637,337.891v-6.083"/>
    <path id="p3342" fill="none" stroke="#000000" d="M537.637,457.89v-6.082"/>
    <path id="p3344" fill="none" stroke="#000000" d="M587.637,457.89v-6.082"/>
    <path id="p3346" fill="none" stroke="#000000" d="M637.637,457.89v-6.082"/>
    <path id="p3348" fill="none" stroke="#000000" d="M587.637,337.891v-6.083"/>
    <path id="p3350" fill="none" stroke="#000000" d="M637.637,337.891v-6.083"/>
    <path id="p3352" fill="none" stroke="#000000" d="M486.577,394.539l17.5-10.678l16.907-11.271l16.907-17.797l16.61-5.933   l16.907,9.195l16.61,25.212l16.907,32.925l16.61,27.585l16.611,1.78l17.203-18.391l16.314-18.39l16.61-14.535"/>
    <path id="p3356" d="   M491.372,394.168c0,2.239-1.815,4.054-4.054,4.054s-4.053-1.814-4.053-4.054l0,0c0-2.238,1.814-4.053,4.053-4.053   S491.372,391.93,491.372,394.168z"/>
    <use xlink:href="#p3356" id="use3358" transform="translate(16.610502,-10.084948)" width="800" height="547"/>
    <use height="547" width="800" transform="translate(33.51762,-21.670969)" id="use3360" xlink:href="#p3356"/>
    <use xlink:href="#p3356" id="use3362" transform="translate(50.296761,-39.393937)" width="800" height="547"/>
    <use height="547" width="800" transform="translate(67.075902,-45.686115)" id="use3364" xlink:href="#p3356"/>
    <use xlink:href="#p3356" id="use3366" transform="translate(83.75017,-36.247848)" width="800" height="547"/>
    <use height="547" width="800" transform="translate(100.73905,-11.288876)" id="use3368" xlink:href="#p3356"/>
    <use xlink:href="#p3356" id="use3370" transform="translate(117.51819,22.164537)" width="800" height="547"/>
    <use height="547" width="800" transform="translate(134.19246,49.430641)" id="use3372" xlink:href="#p3356"/>
    <use xlink:href="#p3356" id="use3374" transform="translate(150.9716,51.213425)" width="800" height="547"/>
    <use height="547" width="800" transform="translate(167.64587,33.175848)" id="use3376" xlink:href="#p3356"/>
    <use xlink:href="#p3356" id="use3378" transform="translate(184.32014,14.718793)" width="800" height="547"/>
    <use height="547" width="800" transform="translate(201.20415,-6.7825129e-2)" id="use3380" xlink:href="#p3356"/>
    <text transform="translate(523.171,324.241)" font-size="20" id="text30" style="font-size:20px;font-family:Arial">Годовой цикл</text>
    <text transform="translate(469.171,482.835)" font-size="20" id="text32" style="font-size:20px;font-family:Arial">Янв</text>
    <text font-size="20" id="text34" style="font-size:20px;font-family:Arial" x="521.17102" y="482.83499">Апр</text>
    <text font-size="20" id="text36" style="font-size:20px;font-family:Arial" x="571.17102" y="482.83499">Июл</text>
    <text font-size="20" id="text38" style="font-size:20px;font-family:Arial" x="625.17102" y="482.83499">Окт</text>
    <text transform="translate(671.171,482.835)" font-size="20" id="text40" style="font-size:20px;font-family:Arial">Янв</text>
    <rect id="r3414" x="29.662" y="28.515" fill="#F0F0F0" stroke="#000000" width="543.401" height="104.409"/>
    <text transform="matrix(1, 0, 0, 1, 58.5098, 537.754)" font-family="'Arial'" font-size="22" id="text43">1960</text>
    <text transform="matrix(1, 0, 0, 1, 186.929, 537.754)" font-family="'Arial'" font-size="22" id="text45">1970</text>
    <text transform="matrix(1, 0, 0, 1, 315.768, 537.754)" font-family="'Arial'" font-size="22" id="text47">1980</text>
    <text transform="matrix(1, 0, 0, 1, 445.35, 537.754)" font-family="'Arial'" font-size="22" id="text49">1990</text>
    <text transform="matrix(1, 0, 0, 1, 574.93, 537.754)" font-family="'Arial'" font-size="22" id="text51">2000</text>
    <text transform="matrix(1, 0, 0, 1, 700.93, 537.754)" font-family="'Arial'" font-size="22" id="text53">2010</text>
    <text id="t3287" y="30.173508" x="756.68341" font-family="'Arial'" font-size="22" style="text-align:end;text-anchor:end;" transform="translate(40,0)">
      <tspan y="30.173508" x="756.68341" id="tspan3293">390</tspan>
      <tspan y="90.413506" x="756.68341" id="tspan3299">380</tspan>
      <tspan y="150.6535" x="756.68341" id="tspan3301">370</tspan>
      <tspan y="210.89351" x="756.68341" id="tspan3303">360</tspan>
      <tspan y="271.13351" x="756.68341" id="tspan3305">350</tspan>
      <tspan y="331.3735" x="756.68341" id="tspan3307">340</tspan>
      <tspan y="391.61349" x="756.68341" id="tspan3309">330</tspan>
      <tspan y="451.85352" x="756.68341" id="tspan3311">320</tspan>
      <tspan y="512.09351" x="756.68341" id="tspan3315">310</tspan>
    </text>
    <text transform="matrix(0,-1,1,0,830.732,493.953)" font-size="24" id="text65" style="font-size:24px;font-family:Arial">Концентрация углекислого газа (ppmv)</text>
    <text transform="translate(40.27,73.5059)" font-size="36" id="text67" style="font-size:36px;font-family:Arial">Атмосферный углекислый газ</text>
    <text transform="translate(77.9849,113.506)" font-size="28" id="text69" style="font-size:28px;font-family:Arial">Измерения на Мауна Лоа, Гаваи</text>
  </g>
</svg>